<mxfile host="app.diagrams.net" modified="2021-12-26T13:50:37.137Z" agent="5.0 (X11; Linux x86_64) AppleWebKit/537.36 (KHTML, like Gecko) Chrome/96.0.4664.110 Safari/537.36" etag="s9vw-D_XkAfyL-pXjhdW" version="16.1.0" type="github">
  <diagram id="6a731a19-8d31-9384-78a2-239565b7b9f0" name="Page-1">
    <mxGraphModel dx="1863" dy="493" grid="1" gridSize="10" guides="1" tooltips="1" connect="1" arrows="1" fold="1" page="1" pageScale="1" pageWidth="827" pageHeight="1169" background="none" math="0" shadow="0">
      <root>
        <mxCell id="0" />
        <mxCell id="1" parent="0" />
        <mxCell id="E98OGkTCvnJ0Mw3zOJ---2271" value="" style="rounded=1;whiteSpace=wrap;html=1;strokeColor=none;fillColor=#00FF00;fontSize=24;fontColor=#23445D;align=center;opacity=60;arcSize=18;" vertex="1" parent="1">
          <mxGeometry x="-110" y="237" width="1160" height="913" as="geometry" />
        </mxCell>
        <mxCell id="E98OGkTCvnJ0Mw3zOJ---2266" value="" style="rounded=1;whiteSpace=wrap;html=1;strokeColor=none;fillColor=#BAC8D3;fontSize=24;fontColor=#23445D;align=center;opacity=60;arcSize=18;" vertex="1" parent="1">
          <mxGeometry x="807.5" y="529" width="202.5" height="221" as="geometry" />
        </mxCell>
        <mxCell id="Pr5-naN3Z31YBVQmqUEw-2314" value="" style="rounded=1;whiteSpace=wrap;html=1;strokeColor=none;fillColor=#BAC8D3;fontSize=24;fontColor=#23445D;align=center;opacity=60;arcSize=18;" parent="1" vertex="1">
          <mxGeometry x="480" y="530" width="308" height="219" as="geometry" />
        </mxCell>
        <mxCell id="Pr5-naN3Z31YBVQmqUEw-2285" value="" style="rounded=1;whiteSpace=wrap;html=1;strokeColor=none;fillColor=#BAC8D3;fontSize=24;fontColor=#23445D;align=center;opacity=60;arcSize=18;" parent="1" vertex="1">
          <mxGeometry x="-78" y="534" width="530" height="576" as="geometry" />
        </mxCell>
        <mxCell id="2087" value="&lt;font color=&quot;#23445d&quot;&gt;Vitual Compute Appliance&lt;/font&gt;" style="rounded=1;whiteSpace=wrap;html=1;strokeColor=none;fillColor=none;fontSize=14;fontColor=#742B21;align=center;fontStyle=1" parent="1" vertex="1">
          <mxGeometry y="555" width="187" height="24" as="geometry" />
        </mxCell>
        <mxCell id="2094" value="" style="rounded=1;whiteSpace=wrap;html=1;strokeColor=none;fillColor=#00FF00;fontSize=24;fontColor=#23445D;align=center;opacity=60;" parent="1" vertex="1">
          <mxGeometry x="460" y="50" width="450" height="210" as="geometry" />
        </mxCell>
        <mxCell id="2103" value="" style="shape=mxgraph.cisco.servers.fileserver;html=1;dashed=0;fillColor=#10739E;strokeColor=#ffffff;strokeWidth=2;verticalLabelPosition=bottom;verticalAlign=top;fontFamily=Helvetica;fontSize=36;fontColor=#FFB366" parent="1" vertex="1">
          <mxGeometry x="540" y="117" width="43" height="62" as="geometry" />
        </mxCell>
        <mxCell id="2104" value="" style="shape=mxgraph.cisco.servers.fileserver;html=1;dashed=0;fillColor=#10739E;strokeColor=#ffffff;strokeWidth=2;verticalLabelPosition=bottom;verticalAlign=top;fontFamily=Helvetica;fontSize=36;fontColor=#FFB366" parent="1" vertex="1">
          <mxGeometry x="610" y="117" width="43" height="62" as="geometry" />
        </mxCell>
        <mxCell id="2105" value="" style="shape=mxgraph.cisco.computers_and_peripherals.ibm_mainframe;html=1;dashed=0;fillColor=#10739E;strokeColor=#ffffff;strokeWidth=2;verticalLabelPosition=bottom;verticalAlign=top;fontFamily=Helvetica;fontSize=36;fontColor=#FFB366" parent="1" vertex="1">
          <mxGeometry x="690" y="113" width="50" height="70" as="geometry" />
        </mxCell>
        <mxCell id="2106" value="" style="shape=mxgraph.cisco.servers.storage_server;html=1;dashed=0;fillColor=#10739E;strokeColor=#ffffff;strokeWidth=2;verticalLabelPosition=bottom;verticalAlign=top;fontFamily=Helvetica;fontSize=36;fontColor=#FFB366" parent="1" vertex="1">
          <mxGeometry x="770" y="101" width="54" height="83" as="geometry" />
        </mxCell>
        <mxCell id="2108" value="" style="shape=mxgraph.cisco.security.pix_firewall;html=1;dashed=0;fillColor=#10739E;strokeColor=#ffffff;strokeWidth=2;verticalLabelPosition=bottom;verticalAlign=top;fontFamily=Helvetica;fontSize=36;fontColor=#FFB366" parent="1" vertex="1">
          <mxGeometry x="255" y="288" width="77" height="51" as="geometry" />
        </mxCell>
        <mxCell id="2109" value="Internet" style="shape=mxgraph.cisco.storage.cloud;html=1;dashed=0;strokeColor=#23445D;fillColor=#ffffff;strokeWidth=2;fontFamily=Helvetica;fontSize=24;fontColor=#23445D;align=center;fontStyle=1" parent="1" vertex="1">
          <mxGeometry x="76.31" y="79" width="186" height="106" as="geometry" />
        </mxCell>
        <mxCell id="2112" value="" style="shape=mxgraph.cisco.switches.layer_3_switch;html=1;dashed=0;fillColor=#10739E;strokeColor=#ffffff;strokeWidth=2;verticalLabelPosition=bottom;verticalAlign=top;fontFamily=Helvetica;fontSize=36;fontColor=#FFB366" parent="1" vertex="1">
          <mxGeometry x="439.75" y="339" width="64" height="64" as="geometry" />
        </mxCell>
        <mxCell id="2114" value="" style="shape=mxgraph.cisco.switches.workgroup_switch;html=1;dashed=0;fillColor=#10739E;strokeColor=#ffffff;strokeWidth=2;verticalLabelPosition=bottom;verticalAlign=top;fontFamily=Helvetica;fontSize=36;fontColor=#FFB366" parent="1" vertex="1">
          <mxGeometry x="250" y="795" width="143.5" height="50" as="geometry" />
        </mxCell>
        <mxCell id="2138" value="" style="shape=mxgraph.cisco.routers.router;html=1;dashed=0;fillColor=#10739E;strokeColor=#ffffff;strokeWidth=2;verticalLabelPosition=bottom;verticalAlign=top;fontFamily=Helvetica;fontSize=36;fontColor=#FFB366" parent="1" vertex="1">
          <mxGeometry x="249.31" y="114" width="78" height="53" as="geometry" />
        </mxCell>
        <mxCell id="2153" value="" style="line;html=1;strokeColor=#23445D;" parent="1" vertex="1">
          <mxGeometry x="440" y="227" width="440" height="10" as="geometry" />
        </mxCell>
        <mxCell id="2164" value="" style="edgeStyle=elbowEdgeStyle;elbow=horizontal;endArrow=none;html=1;strokeColor=#23445D;endFill=0;strokeWidth=4;rounded=1" parent="1" source="2103" edge="1">
          <mxGeometry width="100" height="100" relative="1" as="geometry">
            <mxPoint x="559" y="190" as="sourcePoint" />
            <mxPoint x="559.2777777777774" y="232.08333333333348" as="targetPoint" />
          </mxGeometry>
        </mxCell>
        <mxCell id="2165" value="" style="edgeStyle=elbowEdgeStyle;elbow=horizontal;endArrow=none;html=1;strokeColor=#23445D;endFill=0;strokeWidth=4;rounded=1" parent="1" source="2104" edge="1">
          <mxGeometry width="100" height="100" relative="1" as="geometry">
            <mxPoint x="631" y="190.00000000000006" as="sourcePoint" />
            <mxPoint x="631.2777777777783" y="232.08333333333348" as="targetPoint" />
          </mxGeometry>
        </mxCell>
        <mxCell id="2166" value="" style="edgeStyle=elbowEdgeStyle;elbow=horizontal;endArrow=none;html=1;strokeColor=#23445D;endFill=0;strokeWidth=4;rounded=1" parent="1" source="2105" edge="1">
          <mxGeometry width="100" height="100" relative="1" as="geometry">
            <mxPoint x="715" y="190.00000000000006" as="sourcePoint" />
            <mxPoint x="715.2777777777774" y="232.08333333333348" as="targetPoint" />
          </mxGeometry>
        </mxCell>
        <mxCell id="2167" value="" style="edgeStyle=elbowEdgeStyle;elbow=horizontal;endArrow=none;html=1;strokeColor=#23445D;endFill=0;strokeWidth=4;rounded=1" parent="1" source="2106" edge="1">
          <mxGeometry width="100" height="100" relative="1" as="geometry">
            <mxPoint x="800" y="190.00000000000006" as="sourcePoint" />
            <mxPoint x="800.2777777777774" y="232.08333333333348" as="targetPoint" />
          </mxGeometry>
        </mxCell>
        <mxCell id="2168" value="" style="edgeStyle=elbowEdgeStyle;elbow=horizontal;endArrow=none;html=1;strokeColor=#23445D;endFill=0;strokeWidth=4;rounded=1;entryX=1.052;entryY=0.373;entryDx=0;entryDy=0;entryPerimeter=0;" parent="1" target="2108" edge="1">
          <mxGeometry width="100" height="100" relative="1" as="geometry">
            <mxPoint x="440" y="230" as="sourcePoint" />
            <mxPoint x="416" y="263" as="targetPoint" />
            <Array as="points">
              <mxPoint x="440" y="220" />
              <mxPoint x="416.25" y="199" />
            </Array>
          </mxGeometry>
        </mxCell>
        <mxCell id="2170" value="" style="elbow=horizontal;endArrow=none;html=1;strokeColor=#23445D;endFill=0;strokeWidth=4;rounded=1" parent="1" target="2138" edge="1">
          <mxGeometry width="100" height="100" relative="1" as="geometry">
            <mxPoint x="108.25" y="241.00933382137623" as="sourcePoint" />
            <mxPoint x="591.5277777777778" y="152.08333333333337" as="targetPoint" />
          </mxGeometry>
        </mxCell>
        <mxCell id="2172" style="edgeStyle=none;rounded=1;html=1;strokeColor=#23445D;endArrow=none;endFill=0;strokeWidth=4;startArrow=none;exitX=0.397;exitY=1.02;exitDx=0;exitDy=0;exitPerimeter=0;" parent="1" source="Pr5-naN3Z31YBVQmqUEw-2311" edge="1">
          <mxGeometry relative="1" as="geometry">
            <mxPoint x="676" y="671.9870000000001" as="sourcePoint" />
            <Array as="points">
              <mxPoint x="460" y="730" />
              <mxPoint x="460" y="810" />
              <mxPoint x="390" y="810" />
            </Array>
            <mxPoint x="390" y="810" as="targetPoint" />
          </mxGeometry>
        </mxCell>
        <mxCell id="2178" value="" style="edgeStyle=elbowEdgeStyle;elbow=horizontal;endArrow=none;html=1;strokeColor=#23445D;endFill=0;strokeWidth=4;rounded=1;exitX=1;exitY=0.5;exitDx=0;exitDy=0;exitPerimeter=0;" parent="1" target="2112" edge="1" source="2108">
          <mxGeometry width="100" height="100" relative="1" as="geometry">
            <mxPoint x="340" y="314" as="sourcePoint" />
            <mxPoint x="663.2777777777778" y="387.08333333333337" as="targetPoint" />
          </mxGeometry>
        </mxCell>
        <mxCell id="2180" style="edgeStyle=orthogonalEdgeStyle;rounded=1;html=1;strokeColor=#23445D;endArrow=none;endFill=0;strokeWidth=4;startArrow=none;exitX=0.393;exitY=0.978;exitDx=0;exitDy=0;exitPerimeter=0;" parent="1" source="Pr5-naN3Z31YBVQmqUEw-2264" target="Pr5-naN3Z31YBVQmqUEw-2270" edge="1">
          <mxGeometry relative="1" as="geometry">
            <Array as="points">
              <mxPoint x="70" y="844" />
            </Array>
            <mxPoint x="81" y="840" as="sourcePoint" />
            <mxPoint x="109" y="889" as="targetPoint" />
          </mxGeometry>
        </mxCell>
        <mxCell id="2181" style="edgeStyle=orthogonalEdgeStyle;rounded=1;html=1;strokeColor=#23445D;endArrow=none;endFill=0;strokeWidth=4" parent="1" source="2114" target="Pr5-naN3Z31YBVQmqUEw-2270" edge="1">
          <mxGeometry relative="1" as="geometry">
            <Array as="points">
              <mxPoint x="266" y="860" />
              <mxPoint x="90" y="860" />
            </Array>
            <mxPoint x="120" y="870" as="targetPoint" />
          </mxGeometry>
        </mxCell>
        <mxCell id="2200" style="rounded=1;html=1;strokeColor=#23445D;endArrow=none;endFill=0;strokeWidth=4;" parent="1" edge="1">
          <mxGeometry relative="1" as="geometry">
            <mxPoint x="960" y="500" as="sourcePoint" />
            <mxPoint x="930" y="629" as="targetPoint" />
            <Array as="points">
              <mxPoint x="961" y="629" />
            </Array>
          </mxGeometry>
        </mxCell>
        <mxCell id="2227" value="&lt;font color=&quot;#23445d&quot;&gt;Site 2 (external)&lt;/font&gt;" style="rounded=1;whiteSpace=wrap;html=1;strokeColor=none;fillColor=none;fontSize=14;fontColor=#742B21;align=center;fontStyle=1" parent="1" vertex="1">
          <mxGeometry x="615" y="62" width="143" height="19" as="geometry" />
        </mxCell>
        <mxCell id="2257" style="edgeStyle=orthogonalEdgeStyle;curved=1;rounded=0;jumpStyle=none;html=1;exitX=0.75;exitY=0;entryX=0.75;entryY=0;shadow=0;labelBackgroundColor=#ffffff;startArrow=none;startFill=0;endArrow=none;endFill=0;endSize=10;jettySize=auto;orthogonalLoop=1;strokeColor=#23445D;strokeWidth=2;fillColor=#F08705;fontFamily=Helvetica;fontSize=25;fontColor=#23445D;align=left;" parent="1" source="2087" target="2087" edge="1">
          <mxGeometry relative="1" as="geometry" />
        </mxCell>
        <mxCell id="Pr5-naN3Z31YBVQmqUEw-2266" value="" style="edgeStyle=none;rounded=1;html=1;strokeColor=#23445D;endArrow=none;endFill=0;strokeWidth=4;entryX=0.5;entryY=0;entryDx=0;entryDy=0;entryPerimeter=0;" parent="1" source="2112" edge="1" target="Pr5-naN3Z31YBVQmqUEw-2311">
          <mxGeometry relative="1" as="geometry">
            <mxPoint x="631" y="407.41208053691275" as="sourcePoint" />
            <mxPoint x="472" y="420" as="targetPoint" />
          </mxGeometry>
        </mxCell>
        <mxCell id="Pr5-naN3Z31YBVQmqUEw-2267" value="" style="edgeStyle=orthogonalEdgeStyle;rounded=1;html=1;strokeColor=#23445D;endArrow=none;endFill=0;strokeWidth=4;entryX=0.98;entryY=0.5;entryDx=0;entryDy=0;entryPerimeter=0;" parent="1" source="2114" target="Pr5-naN3Z31YBVQmqUEw-2264" edge="1">
          <mxGeometry relative="1" as="geometry">
            <Array as="points">
              <mxPoint x="112" y="822" />
              <mxPoint x="112" y="822" />
            </Array>
            <mxPoint x="138" y="776.5" as="sourcePoint" />
            <mxPoint x="-152" y="1090.5" as="targetPoint" />
          </mxGeometry>
        </mxCell>
        <mxCell id="Pr5-naN3Z31YBVQmqUEw-2264" value="" style="shape=mxgraph.cisco.switches.workgroup_switch;html=1;dashed=0;fillColor=#10739E;strokeColor=#ffffff;strokeWidth=2;verticalLabelPosition=bottom;verticalAlign=top;fontFamily=Helvetica;fontSize=36;fontColor=#FFB366" parent="1" vertex="1">
          <mxGeometry x="10" y="799" width="150" height="46" as="geometry" />
        </mxCell>
        <mxCell id="Pr5-naN3Z31YBVQmqUEw-2269" value="" style="shape=mxgraph.cisco.servers.storage_server;sketch=0;html=1;pointerEvents=1;dashed=0;fillColor=#036897;strokeColor=#ffffff;strokeWidth=2;verticalLabelPosition=bottom;verticalAlign=top;align=center;outlineConnect=0;" parent="1" vertex="1">
          <mxGeometry x="200" y="887" width="174" height="203" as="geometry" />
        </mxCell>
        <mxCell id="Pr5-naN3Z31YBVQmqUEw-2270" value="" style="shape=mxgraph.cisco.servers.storage_server;sketch=0;html=1;pointerEvents=1;dashed=0;fillColor=#036897;strokeColor=#ffffff;strokeWidth=2;verticalLabelPosition=bottom;verticalAlign=top;align=center;outlineConnect=0;" parent="1" vertex="1">
          <mxGeometry x="-47.5" y="887" width="187.5" height="200" as="geometry" />
        </mxCell>
        <mxCell id="Pr5-naN3Z31YBVQmqUEw-2271" style="edgeStyle=orthogonalEdgeStyle;rounded=1;html=1;strokeColor=#23445D;endArrow=none;endFill=0;strokeWidth=4;startArrow=none;exitX=0.5;exitY=0.98;exitDx=0;exitDy=0;exitPerimeter=0;" parent="1" source="Pr5-naN3Z31YBVQmqUEw-2264" edge="1">
          <mxGeometry relative="1" as="geometry">
            <Array as="points">
              <mxPoint x="83" y="844" />
              <mxPoint x="83" y="870" />
              <mxPoint x="299" y="870" />
            </Array>
            <mxPoint x="39" y="819.5" as="sourcePoint" />
            <mxPoint x="299" y="890" as="targetPoint" />
          </mxGeometry>
        </mxCell>
        <mxCell id="Pr5-naN3Z31YBVQmqUEw-2272" value="" style="shape=mxgraph.cisco.computers_and_peripherals.pc;sketch=0;html=1;pointerEvents=1;dashed=0;fillColor=#036897;strokeColor=#ffffff;strokeWidth=2;verticalLabelPosition=bottom;verticalAlign=top;align=center;outlineConnect=0;" parent="1" vertex="1">
          <mxGeometry x="850" y="659" width="78" height="70" as="geometry" />
        </mxCell>
        <mxCell id="Pr5-naN3Z31YBVQmqUEw-2273" value="" style="shape=mxgraph.cisco.computers_and_peripherals.pc;sketch=0;html=1;pointerEvents=1;dashed=0;fillColor=#036897;strokeColor=#ffffff;strokeWidth=2;verticalLabelPosition=bottom;verticalAlign=top;align=center;outlineConnect=0;" parent="1" vertex="1">
          <mxGeometry x="850" y="579" width="78" height="70" as="geometry" />
        </mxCell>
        <mxCell id="Pr5-naN3Z31YBVQmqUEw-2276" style="edgeStyle=orthogonalEdgeStyle;rounded=1;html=1;strokeColor=#23445D;endArrow=none;endFill=0;strokeWidth=4;exitX=0.5;exitY=0.98;exitDx=0;exitDy=0;exitPerimeter=0;" parent="1" target="Pr5-naN3Z31YBVQmqUEw-2272" edge="1" source="Pr5-naN3Z31YBVQmqUEw-2310">
          <mxGeometry relative="1" as="geometry">
            <Array as="points">
              <mxPoint x="959" y="479" />
              <mxPoint x="959" y="694" />
            </Array>
            <mxPoint x="959" y="500" as="sourcePoint" />
            <mxPoint x="946" y="699" as="targetPoint" />
          </mxGeometry>
        </mxCell>
        <mxCell id="Pr5-naN3Z31YBVQmqUEw-2283" value="&lt;font color=&quot;#23445d&quot;&gt;SPARC cluster&lt;/font&gt;" style="rounded=1;whiteSpace=wrap;html=1;strokeColor=none;fillColor=none;fontSize=14;fontColor=#742B21;align=center;fontStyle=1" parent="1" vertex="1">
          <mxGeometry x="520" y="538" width="116" height="24" as="geometry" />
        </mxCell>
        <mxCell id="Pr5-naN3Z31YBVQmqUEw-2292" value="10.150.40.10" style="text;html=1;strokeColor=none;fillColor=none;align=center;verticalAlign=middle;whiteSpace=wrap;rounded=0;" parent="1" vertex="1">
          <mxGeometry x="40" y="885" width="60" height="30" as="geometry" />
        </mxCell>
        <mxCell id="Pr5-naN3Z31YBVQmqUEw-2293" value="10.150.40.11" style="text;html=1;strokeColor=none;fillColor=none;align=center;verticalAlign=middle;whiteSpace=wrap;rounded=0;" parent="1" vertex="1">
          <mxGeometry x="276.75" y="885" width="60" height="30" as="geometry" />
        </mxCell>
        <mxCell id="Pr5-naN3Z31YBVQmqUEw-2294" value="10.150.40.12" style="text;html=1;strokeColor=none;fillColor=none;align=center;verticalAlign=middle;whiteSpace=wrap;rounded=0;" parent="1" vertex="1">
          <mxGeometry x="267" y="820" width="70" height="25" as="geometry" />
        </mxCell>
        <mxCell id="Pr5-naN3Z31YBVQmqUEw-2295" value="10.150.40.13" style="text;html=1;strokeColor=none;fillColor=none;align=center;verticalAlign=middle;whiteSpace=wrap;rounded=0;" parent="1" vertex="1">
          <mxGeometry x="40" y="820" width="60" height="30" as="geometry" />
        </mxCell>
        <mxCell id="Pr5-naN3Z31YBVQmqUEw-2297" style="edgeStyle=orthogonalEdgeStyle;rounded=1;html=1;strokeColor=#23445D;endArrow=none;endFill=0;strokeWidth=4;" parent="1" edge="1">
          <mxGeometry relative="1" as="geometry">
            <Array as="points">
              <mxPoint x="337" y="766" />
              <mxPoint x="337" y="766" />
            </Array>
            <mxPoint x="337" y="743" as="sourcePoint" />
            <mxPoint x="337" y="796" as="targetPoint" />
          </mxGeometry>
        </mxCell>
        <mxCell id="Pr5-naN3Z31YBVQmqUEw-2300" style="edgeStyle=orthogonalEdgeStyle;rounded=1;html=1;strokeColor=#23445D;endArrow=none;endFill=0;strokeWidth=4;entryX=0.638;entryY=0.033;entryDx=0;entryDy=0;entryPerimeter=0;" parent="1" target="Pr5-naN3Z31YBVQmqUEw-2293" edge="1">
          <mxGeometry relative="1" as="geometry">
            <Array as="points">
              <mxPoint x="314" y="860" />
              <mxPoint x="314" y="850" />
              <mxPoint x="315" y="850" />
            </Array>
            <mxPoint x="315" y="860" as="sourcePoint" />
            <mxPoint x="316" y="880" as="targetPoint" />
          </mxGeometry>
        </mxCell>
        <mxCell id="Pr5-naN3Z31YBVQmqUEw-2301" style="edgeStyle=orthogonalEdgeStyle;rounded=1;html=1;strokeColor=#23445D;endArrow=none;endFill=0;strokeWidth=4;" parent="1" edge="1">
          <mxGeometry relative="1" as="geometry">
            <Array as="points">
              <mxPoint x="103.5" y="769" />
              <mxPoint x="103.5" y="769" />
            </Array>
            <mxPoint x="104" y="760" as="sourcePoint" />
            <mxPoint x="103.5" y="799" as="targetPoint" />
          </mxGeometry>
        </mxCell>
        <mxCell id="Pr5-naN3Z31YBVQmqUEw-2310" value="" style="shape=mxgraph.cisco.switches.workgroup_switch;html=1;dashed=0;fillColor=#10739E;strokeColor=#ffffff;strokeWidth=2;verticalLabelPosition=bottom;verticalAlign=top;fontFamily=Helvetica;fontSize=36;fontColor=#FFB366" parent="1" vertex="1">
          <mxGeometry x="889.75" y="430" width="143.5" height="50" as="geometry" />
        </mxCell>
        <mxCell id="Pr5-naN3Z31YBVQmqUEw-2311" value="" style="shape=mxgraph.cisco.switches.workgroup_switch;html=1;dashed=0;fillColor=#10739E;strokeColor=#ffffff;strokeWidth=2;verticalLabelPosition=bottom;verticalAlign=top;fontFamily=Helvetica;fontSize=36;fontColor=#FFB366" parent="1" vertex="1">
          <mxGeometry x="400" y="430" width="143.5" height="50" as="geometry" />
        </mxCell>
        <mxCell id="Pr5-naN3Z31YBVQmqUEw-2312" value="" style="shape=mxgraph.cisco.servers.standard_host;sketch=0;html=1;pointerEvents=1;dashed=0;fillColor=#036897;strokeColor=#ffffff;strokeWidth=2;verticalLabelPosition=bottom;verticalAlign=top;align=center;outlineConnect=0;" parent="1" vertex="1">
          <mxGeometry x="490" y="606.5" width="130" height="70" as="geometry" />
        </mxCell>
        <mxCell id="Pr5-naN3Z31YBVQmqUEw-2313" value="" style="shape=mxgraph.cisco.servers.standard_host;sketch=0;html=1;pointerEvents=1;dashed=0;fillColor=#036897;strokeColor=#ffffff;strokeWidth=2;verticalLabelPosition=bottom;verticalAlign=top;align=center;outlineConnect=0;" parent="1" vertex="1">
          <mxGeometry x="650" y="603.5" width="130" height="70" as="geometry" />
        </mxCell>
        <mxCell id="E98OGkTCvnJ0Mw3zOJ---2259" style="edgeStyle=orthogonalEdgeStyle;rounded=1;html=1;strokeColor=#23445D;endArrow=none;endFill=0;strokeWidth=4;" edge="1" parent="1">
          <mxGeometry relative="1" as="geometry">
            <Array as="points">
              <mxPoint x="84.5" y="687" />
              <mxPoint x="84.5" y="687" />
            </Array>
            <mxPoint x="84.5" y="704" as="sourcePoint" />
            <mxPoint x="84.5" y="717" as="targetPoint" />
          </mxGeometry>
        </mxCell>
        <mxCell id="E98OGkTCvnJ0Mw3zOJ---2262" value="" style="shape=mxgraph.cisco.servers.fileserver;sketch=0;html=1;pointerEvents=1;dashed=0;fillColor=#036897;strokeColor=#ffffff;strokeWidth=2;verticalLabelPosition=bottom;verticalAlign=top;align=center;outlineConnect=0;" vertex="1" parent="1">
          <mxGeometry x="16.75" y="620" width="136.5" height="66" as="geometry" />
        </mxCell>
        <mxCell id="E98OGkTCvnJ0Mw3zOJ---2263" value="" style="shape=mxgraph.cisco.servers.fileserver;sketch=0;html=1;pointerEvents=1;dashed=0;fillColor=#036897;strokeColor=#ffffff;strokeWidth=2;verticalLabelPosition=bottom;verticalAlign=top;align=center;outlineConnect=0;" vertex="1" parent="1">
          <mxGeometry x="250" y="620" width="136.5" height="66" as="geometry" />
        </mxCell>
        <mxCell id="E98OGkTCvnJ0Mw3zOJ---2265" style="edgeStyle=orthogonalEdgeStyle;rounded=1;html=1;strokeColor=#23445D;endArrow=none;endFill=0;strokeWidth=4;" edge="1" parent="1">
          <mxGeometry relative="1" as="geometry">
            <Array as="points">
              <mxPoint x="317.75" y="687" />
              <mxPoint x="317.75" y="687" />
            </Array>
            <mxPoint x="317.75" y="704" as="sourcePoint" />
            <mxPoint x="317.75" y="717" as="targetPoint" />
          </mxGeometry>
        </mxCell>
        <mxCell id="E98OGkTCvnJ0Mw3zOJ---2267" value="&lt;font color=&quot;#23445d&quot;&gt;Client domain&lt;/font&gt;" style="rounded=1;whiteSpace=wrap;html=1;strokeColor=none;fillColor=none;fontSize=14;fontColor=#742B21;align=center;fontStyle=1" vertex="1" parent="1">
          <mxGeometry x="822" y="538" width="116" height="24" as="geometry" />
        </mxCell>
        <mxCell id="E98OGkTCvnJ0Mw3zOJ---2268" value="" style="line;html=1;strokeColor=#23445D;" vertex="1" parent="1">
          <mxGeometry x="540" y="440" width="370" height="10" as="geometry" />
        </mxCell>
        <mxCell id="E98OGkTCvnJ0Mw3zOJ---2272" value="Site 1" style="rounded=1;whiteSpace=wrap;html=1;strokeColor=none;fillColor=none;fontSize=14;fontColor=#23445D;align=center;fontStyle=1" vertex="1" parent="1">
          <mxGeometry x="-46.5" y="330" width="93" height="19" as="geometry" />
        </mxCell>
        <mxCell id="E98OGkTCvnJ0Mw3zOJ---2273" value="" style="edgeStyle=orthogonalEdgeStyle;rounded=1;html=1;strokeColor=#23445D;endArrow=none;endFill=0;strokeWidth=4;entryX=0.683;entryY=0.1;entryDx=0;entryDy=0;entryPerimeter=0;" edge="1" parent="1" source="Pr5-naN3Z31YBVQmqUEw-2312" target="2114">
          <mxGeometry relative="1" as="geometry">
            <Array as="points">
              <mxPoint x="555" y="780" />
              <mxPoint x="348" y="780" />
            </Array>
            <mxPoint x="583" y="780" as="sourcePoint" />
            <mxPoint x="490" y="780" as="targetPoint" />
          </mxGeometry>
        </mxCell>
        <mxCell id="E98OGkTCvnJ0Mw3zOJ---2274" value="" style="edgeStyle=orthogonalEdgeStyle;rounded=1;html=1;strokeColor=#23445D;endArrow=none;endFill=0;strokeWidth=4;entryX=0.98;entryY=0.5;entryDx=0;entryDy=0;entryPerimeter=0;exitX=0.787;exitY=0;exitDx=0;exitDy=0;exitPerimeter=0;" edge="1" parent="1" source="2114">
          <mxGeometry relative="1" as="geometry">
            <Array as="points">
              <mxPoint x="363" y="790" />
              <mxPoint x="710" y="790" />
            </Array>
            <mxPoint x="710" y="850" as="sourcePoint" />
            <mxPoint x="710" y="676.5" as="targetPoint" />
          </mxGeometry>
        </mxCell>
        <mxCell id="E98OGkTCvnJ0Mw3zOJ---2275" value="" style="shape=mxgraph.cisco.switches.fibre_channel_fabric_switch;sketch=0;html=1;pointerEvents=1;dashed=0;fillColor=#036897;strokeColor=#ffffff;strokeWidth=2;verticalLabelPosition=bottom;verticalAlign=top;align=center;outlineConnect=0;" vertex="1" parent="1">
          <mxGeometry x="246.5" y="700" width="140" height="74" as="geometry" />
        </mxCell>
        <mxCell id="E98OGkTCvnJ0Mw3zOJ---2277" value="10.150.40.14" style="text;html=1;strokeColor=none;fillColor=none;align=center;verticalAlign=middle;whiteSpace=wrap;rounded=0;" vertex="1" parent="1">
          <mxGeometry x="40" y="754" width="60" height="30" as="geometry" />
        </mxCell>
        <mxCell id="E98OGkTCvnJ0Mw3zOJ---2280" value="10.150.40.15" style="text;html=1;strokeColor=none;fillColor=none;align=center;verticalAlign=middle;whiteSpace=wrap;rounded=0;" vertex="1" parent="1">
          <mxGeometry x="272" y="744" width="60" height="30" as="geometry" />
        </mxCell>
        <mxCell id="E98OGkTCvnJ0Mw3zOJ---2279" value="" style="shape=mxgraph.cisco.switches.fibre_channel_fabric_switch;sketch=0;html=1;pointerEvents=1;dashed=0;fillColor=#036897;strokeColor=#ffffff;strokeWidth=2;verticalLabelPosition=bottom;verticalAlign=top;align=center;outlineConnect=0;" vertex="1" parent="1">
          <mxGeometry x="13.25" y="710" width="140" height="74" as="geometry" />
        </mxCell>
        <mxCell id="E98OGkTCvnJ0Mw3zOJ---2281" value="10.150.40.14" style="text;html=1;strokeColor=none;fillColor=none;align=center;verticalAlign=middle;whiteSpace=wrap;rounded=0;" vertex="1" parent="1">
          <mxGeometry x="40" y="754" width="60" height="30" as="geometry" />
        </mxCell>
        <mxCell id="Pr5-naN3Z31YBVQmqUEw-2291" value="10.150.40.27" style="text;html=1;strokeColor=none;fillColor=none;align=center;verticalAlign=middle;whiteSpace=wrap;rounded=0;" parent="1" vertex="1">
          <mxGeometry x="40" y="649" width="60" height="30" as="geometry" />
        </mxCell>
        <mxCell id="Pr5-naN3Z31YBVQmqUEw-2290" value="10.150.40.28" style="text;html=1;strokeColor=none;fillColor=none;align=center;verticalAlign=middle;whiteSpace=wrap;rounded=0;" parent="1" vertex="1">
          <mxGeometry x="272" y="649" width="60" height="30" as="geometry" />
        </mxCell>
      </root>
    </mxGraphModel>
  </diagram>
</mxfile>
